<svg width="239" height="239" viewBox="0 0 239 239" fill="none" xmlns="http://www.w3.org/2000/svg">
<rect width="239" height="239" rx="43" fill="#1E1E24"/>
<path d="M190.465 118.5C190.465 127.819 188.629 137.047 185.063 145.657C181.497 154.267 176.27 162.09 169.68 168.68C163.09 175.27 155.267 180.497 146.657 184.063C138.047 187.629 128.819 189.465 119.5 189.465L119.5 164.627C125.558 164.627 131.556 163.434 137.152 161.116C142.749 158.798 147.834 155.4 152.117 151.117C156.4 146.834 159.798 141.749 162.116 136.152C164.434 130.556 165.627 124.558 165.627 118.5H190.465Z" fill="#4A4A52"/>
<path d="M48.535 118.5C48.535 109.181 50.3706 99.9527 53.9369 91.3429C57.5032 82.733 62.7305 74.9099 69.3202 68.3202C75.9099 61.7305 83.733 56.5032 92.3429 52.9369C100.953 49.3706 110.181 47.535 119.5 47.535L119.5 72.3728C113.442 72.3728 107.444 73.5659 101.848 75.884C96.2515 78.2021 91.1664 81.5998 86.8831 85.8831C82.5998 90.1664 79.2021 95.2515 76.884 100.848C74.5659 106.444 73.3728 112.442 73.3728 118.5H48.535Z" fill="#4A4A52"/>
<path d="M119.5 189.465C110.181 189.465 100.953 187.629 92.3429 184.063C83.733 180.497 75.9099 175.27 69.3202 168.68C62.7305 162.09 57.5032 154.267 53.9369 145.657C50.3706 137.047 48.535 127.819 48.535 118.5L73.3728 118.5C73.3728 124.558 74.5659 130.556 76.884 136.152C79.2021 141.749 82.5998 146.834 86.8831 151.117C91.1664 155.4 96.2515 158.798 101.848 161.116C107.444 163.434 113.442 164.627 119.5 164.627V189.465Z" fill="#4A4A52"/>
<path d="M119.5 47.535C128.819 47.535 138.047 49.3706 146.657 52.9369C155.267 56.5032 163.09 61.7305 169.68 68.3202C176.27 74.9099 181.497 82.733 185.063 91.3429C188.629 99.9527 190.465 109.181 190.465 118.5L165.627 118.5C165.627 112.442 164.434 106.444 162.116 100.848C159.798 95.2515 156.4 90.1664 152.117 85.8831C147.834 81.5998 142.749 78.2021 137.152 75.884C131.556 73.5659 125.558 72.3728 119.5 72.3728V47.535Z" fill="#00F5D4"/>
<rect x="124" y="22" width="193" height="8" transform="rotate(90 124 22)" fill="#1E1E24"/>
<rect x="29" y="115" width="193" height="8" fill="#1E1E24"/>
<g filter="url(#filter0_f_2_63)">
<path d="M119.5 47.535C128.819 47.535 138.047 49.3706 146.657 52.9369C155.267 56.5032 163.09 61.7305 169.68 68.3202C176.27 74.9099 181.497 82.733 185.063 91.3429C188.629 99.9527 190.465 109.181 190.465 118.5L165.627 118.5C165.627 112.442 164.434 106.444 162.116 100.848C159.798 95.2515 156.4 90.1664 152.117 85.8831C147.834 81.5998 142.749 78.2021 137.152 75.884C131.556 73.5659 125.558 72.3728 119.5 72.3728V47.535Z" fill="#00F5D4"/>
</g>
<g filter="url(#filter1_f_2_63)">
<path d="M119.5 47.535C128.819 47.535 138.047 49.3706 146.657 52.9369C155.267 56.5032 163.09 61.7305 169.68 68.3202C176.27 74.9099 181.497 82.733 185.063 91.3429C188.629 99.9527 190.465 109.181 190.465 118.5L165.627 118.5C165.627 112.442 164.434 106.444 162.116 100.848C159.798 95.2515 156.4 90.1664 152.117 85.8831C147.834 81.5998 142.749 78.2021 137.152 75.884C131.556 73.5659 125.558 72.3728 119.5 72.3728V47.535Z" fill="#00F5D4"/>
</g>
<defs>
<filter id="filter0_f_2_63" x="74.7" y="2.735" width="160.565" height="160.565" filterUnits="userSpaceOnUse" color-interpolation-filters="sRGB">
<feFlood flood-opacity="0" result="BackgroundImageFix"/>
<feBlend mode="normal" in="SourceGraphic" in2="BackgroundImageFix" result="shape"/>
<feGaussianBlur stdDeviation="22.4" result="effect1_foregroundBlur_2_63"/>
</filter>
<filter id="filter1_f_2_63" x="101.4" y="29.435" width="107.165" height="107.165" filterUnits="userSpaceOnUse" color-interpolation-filters="sRGB">
<feFlood flood-opacity="0" result="BackgroundImageFix"/>
<feBlend mode="normal" in="SourceGraphic" in2="BackgroundImageFix" result="shape"/>
<feGaussianBlur stdDeviation="9.05" result="effect1_foregroundBlur_2_63"/>
</filter>
</defs>
</svg>
